<?xml version="1.0" ?><!DOCTYPE svg  PUBLIC '-//W3C//DTD SVG 1.1//EN'  'http://www.w3.org/Graphics/SVG/1.1/DTD/svg11.dtd'><svg height="512px" style="enable-background:new 0 0 512 512;" version="1.1" viewBox="0 0 512 512" width="512px" xml:space="preserve" xmlns="http://www.w3.org/2000/svg" xmlns:xlink="http://www.w3.org/1999/xlink"><g id="_x31_37-Creativecloud_x2C__creative_cloud_x2C__CC_x2C__adobe"><g><path fill= "#3c3e53" d="M205.933,335.743c-3.419,0.565-6.919,0.942-10.463,0.942c-34.694,0-62.925-28.212-62.925-62.877    c0-41.6,40.206-74.674,84.025-59.063c3.731,1.052,7.803,2.957,12.101,5.679c0.188,0.13,0.399,0.231,0.607,0.359l65.503,40.976    c4.928,3.058,11.389,1.572,14.451-3.355c3.062-4.903,1.573-11.361-3.313-14.441l-65.984-41.268    c-0.168-0.104-0.359-0.21-0.547-0.313c-5.852-3.65-11.601-6.268-16.442-7.587c-8.852-3.209-18.081-4.823-27.477-4.823    c-46.269,0-83.897,37.603-83.897,83.836c0,46.237,37.629,83.837,83.897,83.837c9.879,0,19.463-1.824,28.479-5.072    C217.153,347.438,211.24,341.841,205.933,335.743z"/><path fill= "#3c3e53" d="M300.339,148.058c-26.636,0-51.259,9.873-70.157,27.099c6.586,2.073,13.234,5.093,19.86,9.179    c0.337,0.19,0.673,0.402,1.009,0.608l0.063,0.043c14.014-10.227,31.042-15.973,49.226-15.973    c46.269,0,83.896,37.604,83.896,83.835c0,46.236-37.627,83.837-83.896,83.837c-18.12,0-35.403-5.723-50.003-16.6    c-5.914-4.357-10.737-8.951-14.766-14.02c-0.23-0.294-0.461-0.57-0.734-0.842l-31.25-38.059    c-3.692-4.487-10.302-5.155-14.765-1.468c-4.489,3.668-5.14,10.27-1.471,14.757l31.863,38.813c0.164,0.21,0.353,0.419,0.544,0.607    c5.073,6.246,11.012,11.819,18.102,17.04c18.183,13.561,39.786,20.729,62.479,20.729c57.825,0,104.872-47.01,104.872-104.797    C405.211,195.068,358.164,148.058,300.339,148.058z"/><path fill= "#3c3e53" d="M376,16H136C69.726,16,16,69.726,16,136v240c0,66.274,53.726,120,120,120h240c66.274,0,120-53.726,120-120V136    C496,69.726,442.274,16,376,16z M300.339,379H195.47c-57.907,0-104.871-47.125-104.871-104.992s46.964-104.994,104.871-104.994    c3.524,0,6.88,0.692,10.317,1.051c23.053-26.284,56.82-42.966,94.552-42.966c69.511,0,125.847,56.493,125.847,125.948    C426.186,322.506,369.85,379,300.339,379z"/></g></g><g id="Layer_1"/></svg>